<?xml version="1.0" encoding="UTF-8"?>
<svg version="1.1" xmlns="http://www.w3.org/2000/svg" xmlns:xlink="http://www.w3.org/1999/xlink">
<defs></defs>
<symbol id="fit-width" fill="none" viewBox="0 0 24 24"><path stroke="currentColor" stroke-linecap="round" stroke-linejoin="round" stroke-width="2" d="m5 9-3 3m0 0 3 3m-3-3h20m-3-3 3 3m0 0-3 3"/></symbol>
<symbol id="wide" fill="none" viewBox="0 0 24 25"><path stroke="currentColor" stroke-linecap="round" stroke-linejoin="round" stroke-width="2" d="M22 20.106h-6a2 2 0 0 1-2-2v-12a2 2 0 0 1 2-2h6m-20 0h6a2 2 0 0 1 2 2v12a2 2 0 0 1-2 2H2"/></symbol>
<symbol id="arrow-circle-left" fill="none" viewBox="0 0 24 25"><path stroke="currentColor" stroke-linecap="round" stroke-linejoin="round" stroke-width="2" d="m11 9.106-3 3m0 0 3 3m-3-3h8m5 0a9 9 0 1 1-18 0 9 9 0 0 1 18 0"/></symbol>
<symbol id="arrow-circled" fill="none" viewBox="0 0 24 25"><path stroke="currentColor" stroke-linecap="round" stroke-linejoin="round" stroke-width="2" d="M12 21.075a9 9 0 1 0 0-18 9 9 0 0 0 0 18"/><path stroke="currentColor" stroke-linecap="round" stroke-linejoin="round" stroke-width="2" d="M9.93 8.006v8.137c0 .606 0 .909.12 1.05a.5.5 0 0 0 .419.173c.184-.015.398-.229.826-.657l4.069-4.069c.198-.198.297-.297.334-.411a.5.5 0 0 0 0-.309c-.037-.114-.136-.213-.334-.411L11.295 7.44c-.428-.428-.642-.642-.826-.657a.5.5 0 0 0-.42.174c-.12.14-.12.443-.12 1.049"/></symbol>
<symbol id="arrow-down-to-bracket" fill="none" viewBox="0 0 24 24"><path stroke="currentColor" stroke-linecap="round" stroke-linejoin="round" stroke-width="2" d="m8 11 4 4m0 0 4-4m-4 4V3m9 8v6.8c0 1.12 0 1.68-.218 2.107a2 2 0 0 1-.874.874C19.48 21 18.92 21 17.8 21H6.2c-1.12 0-1.68 0-2.108-.218a2 2 0 0 1-.874-.874C3 19.48 3 18.92 3 17.8V11"/></symbol>
<symbol id="arrow-sm-left" fill="none" viewBox="0 0 24 24"><path stroke="currentColor" stroke-linecap="round" stroke-linejoin="round" stroke-width="2" d="M6 12h12M6 12l5-5m-5 5 5 5"/></symbol>
<symbol id="arrow" fill="none" viewBox="0 0 24 24"><path stroke="currentColor" stroke-linecap="round" stroke-linejoin="round" stroke-width="2" d="m6 15 6-6 6 6"/></symbol>
<symbol id="arrow-back" fill="none" viewBox="0 0 24 25"><path stroke="currentColor" stroke-linecap="round" stroke-linejoin="round" stroke-width="2" d="m15 18.212-6-6 6-6"/></symbol>
<symbol id="arrow-circle" fill="none" viewBox="0 0 24 25"><path stroke="currentColor" stroke-linecap="round" stroke-linejoin="round" stroke-width="2" d="m13 15.106 3-3m0 0-3-3m3 3H8m13 0a9 9 0 1 1-18 0 9 9 0 0 1 18 0"/></symbol>
<symbol id="arrow-down-list" fill="none" viewBox="0 0 24 25"><path fill="currentColor" d="M11.208 17.243a1 1 0 0 0 1.584 0l4.897-6.36a1 1 0 0 0-.793-1.61H7.104a1 1 0 0 0-.793 1.61z"/></symbol>
<symbol id="arrow-up-droplist" fill="none" viewBox="0 0 24 25"><path fill="currentColor" d="M11.208 7.24a1 1 0 0 1 1.584 0l4.897 6.361a1 1 0 0 1-.793 1.61H7.104a1 1 0 0 1-.793-1.61z"/></symbol>
<symbol id="bell" fill="none" viewBox="0 0 24 24"><path stroke="currentColor" stroke-linecap="round" stroke-linejoin="round" stroke-width="2" d="M9.002 17H5.606c-1.258 0-1.888 0-2.02-.098-.149-.11-.185-.174-.201-.358-.014-.164.371-.795 1.143-2.057C5.324 13.184 6 11.287 6 8.6c0-1.485.632-2.91 1.757-3.96S10.41 3 12 3s3.117.59 4.243 1.64C17.368 5.69 18 7.115 18 8.6c0 2.686.676 4.584 1.473 5.887.77 1.262 1.157 1.893 1.142 2.057-.016.184-.052.248-.201.358-.132.098-.762.098-2.02.098H15m-5.998 0L9 18a3 3 0 1 0 6 0v-1m-5.998 0H15"/></symbol>
<symbol id="book" fill="none" viewBox="0 0 24 24"><path stroke="currentColor" stroke-linecap="round" stroke-linejoin="round" stroke-width="2" d="M12 10.4V20m0-9.6c0-2.24 0-3.36-.436-4.216a4 4 0 0 0-1.748-1.748C8.96 4 7.84 4 5.6 4h-1c-.56 0-.84 0-1.054.109a1 1 0 0 0-.437.437C3 4.76 3 5.04 3 5.6v10.8c0 .56 0 .84.109 1.054a1 1 0 0 0 .437.437C3.76 18 4.04 18 4.6 18h2.947c.54 0 .81 0 1.071.047q.349.061.674.204c.243.106.468.255.917.555L12 20m0-9.6c0-2.24 0-3.36.436-4.216a4 4 0 0 1 1.748-1.748C15.04 4 16.16 4 18.4 4h1c.56 0 .84 0 1.054.109a1 1 0 0 1 .437.437C21 4.76 21 5.04 21 5.6v10.8c0 .56 0 .84-.109 1.054a1 1 0 0 1-.437.437C20.24 18 19.96 18 19.4 18h-2.947c-.54 0-.81 0-1.071.047q-.349.061-.674.204c-.243.106-.468.255-.917.555L12 20"/></symbol>
<symbol id="book2" fill="none" viewBox="0 0 24 24"><path stroke="currentColor" stroke-linecap="round" stroke-linejoin="round" stroke-width="2" d="M4 19V6.2c0-1.12 0-1.68.218-2.108a2 2 0 0 1 .874-.874C5.52 3 6.08 3 7.2 3h9.6c1.12 0 1.68 0 2.108.218a2 2 0 0 1 .874.874C20 4.52 20 5.08 20 6.2V17H6a2 2 0 0 0-2 2m0 0a2 2 0 0 0 2 2h14M9 7h6m-6 4h6m4 6v4"/></symbol>
<symbol id="calendar" fill="none" viewBox="0 0 24 25"><path stroke="currentColor" stroke-linecap="round" stroke-linejoin="round" stroke-width="2" d="M3 10.106h18m-14-7v2m10-2v2m-10.8 16h11.6c1.12 0 1.68 0 2.108-.218a2 2 0 0 0 .874-.875c.218-.427.218-.987.218-2.107v-9.6c0-1.12 0-1.68-.218-2.108a2 2 0 0 0-.874-.874c-.428-.218-.988-.218-2.108-.218H6.2c-1.12 0-1.68 0-2.108.218a2 2 0 0 0-.874.874C3 6.625 3 7.185 3 8.306v9.6c0 1.12 0 1.68.218 2.108a2 2 0 0 0 .874.874c.428.218.988.218 2.108.218"/></symbol>
<symbol id="cart-arrow-down" fill="none" viewBox="0 0 24 24"><path stroke="currentColor" stroke-linecap="round" stroke-linejoin="round" stroke-width="2" d="m21 5-2 7H7.377M20 16H8L6 3H3m8.5 4 2 2m0 0 2-2m-2 2V3M9 20a1 1 0 1 1-2 0 1 1 0 0 1 2 0m11 0a1 1 0 1 1-2 0 1 1 0 0 1 2 0"/></symbol>
<symbol id="chapter" fill="none" viewBox="0 0 24 25"><path stroke="currentColor" stroke-linecap="round" stroke-linejoin="round" stroke-width="2" d="M8 5.106c-.988 0-1.506.013-1.908.218a2 2 0 0 0-.874.874C5 6.625 5 7.185 5 8.306v9.6c0 1.12 0 1.68.218 2.108a2 2 0 0 0 .874.874c.428.217.988.217 2.108.217h7.6c1.12 0 1.68 0 2.108-.218a2 2 0 0 0 .874-.873c.218-.428.218-.988.218-2.108v-9.6c0-1.12 0-1.68-.218-2.108a2 2 0 0 0-.874-.874c-.402-.205-.92-.218-1.908-.218m-8 0v2h8v-2m-8 0v-.293a1.707 1.707 0 0 1 1.707-1.707h4.586A1.707 1.707 0 0 1 16 4.813v.293"/></symbol>
<symbol id="chevron-down" fill="none" viewBox="0 0 24 24"><path stroke="currentColor" stroke-linecap="round" stroke-linejoin="round" stroke-width="2" d="m6 9 6 6 6-6"/></symbol>
<symbol id="chevron-up" fill="none" viewBox="0 0 24 25"><path stroke="currentColor" stroke-linecap="round" stroke-linejoin="round" stroke-width="2" d="m6 15.106 6-6 6 6"/></symbol>
<symbol id="clock-seven" fill="none" viewBox="0 0 24 25"><path stroke="currentColor" stroke-linecap="round" stroke-linejoin="round" stroke-width="2" d="M12 7.106v5l-1.5 2.5m10.5-2.5a9 9 0 1 1-18 0 9 9 0 0 1 18 0"/></symbol>
<symbol id="close" fill="none" viewBox="0 0 24 24"><path fill="currentColor" d="M20.746 3.329a1 1 0 0 0-1.415 0l-7.294 7.294-7.294-7.294a1 1 0 1 0-1.414 1.414l7.294 7.294-7.294 7.294a1 1 0 0 0 1.414 1.415l7.294-7.295 7.294 7.295a1 1 0 0 0 1.415-1.415l-7.295-7.294 7.295-7.294a1 1 0 0 0 0-1.414"/></symbol>
<symbol id="credit-card-arrow-right-alt" fill="none" viewBox="0 0 24 25"><path stroke="currentColor" stroke-linecap="round" stroke-linejoin="round" stroke-width="2" d="M13 18.212h4.8c1.12 0 1.68 0 2.108-.218a2 2 0 0 0 .874-.875c.218-.427.218-.987.218-2.107v-7.6c0-1.12 0-1.68-.218-2.108a2 2 0 0 0-.874-.875c-.428-.217-.988-.217-2.108-.217H6.2c-1.12 0-1.68 0-2.108.218a2 2 0 0 0-.874.874C3 5.73 3 6.29 3 7.412v6.8m0-6h17m-11 10H3m6 0-2-2m2 2-2 2"/></symbol>
<symbol id="credit-card" fill="none" viewBox="0 0 24 25"><path stroke="currentColor" stroke-linecap="round" stroke-linejoin="round" stroke-width="2" d="M3 9.212h18m-14 6h2m-2.8 4h11.6c1.12 0 1.68 0 2.108-.218a2 2 0 0 0 .874-.875c.218-.427.218-.987.218-2.107v-7.6c0-1.12 0-1.68-.218-2.108a2 2 0 0 0-.874-.875c-.428-.217-.988-.217-2.108-.217H6.2c-1.12 0-1.68 0-2.108.218a2 2 0 0 0-.874.874C3 6.73 3 7.29 3 8.412v7.6c0 1.12 0 1.68.218 2.107a2 2 0 0 0 .874.875c.428.218.988.218 2.108.218"/></symbol>
<symbol id="eye-close" fill="none" viewBox="0 0 24 25"><path stroke="currentColor" stroke-linecap="round" stroke-linejoin="round" stroke-width="2" d="m21 3.106-18 18m11.156-11.087a3 3 0 0 1-4.265 4.22M17.5 6.753a10.02 10.02 0 0 1 4.042 5.352c-1.274 4.058-5.065 7-9.542 7a9.95 9.95 0 0 1-5.4-1.581M13 5.154q-.494-.048-1-.048c-4.478 0-8.268 2.942-9.542 7 .28.893.683 1.733 1.189 2.5"/></symbol>
<symbol id="faq" fill="none" viewBox="0 0 24 25"><path stroke="currentColor" stroke-linecap="round" stroke-linejoin="round" stroke-width="2" d="M12 7.606v4m0 3h.01m6.99-4.3c0 3.976-3.5 7.2-7 10.8-3.5-3.6-7-6.824-7-10.8s3.134-7.2 7-7.2 7 3.223 7 7.2"/></symbol>
<symbol id="favorite" fill="none" viewBox="0 0 24 24"><path fill="currentColor" fill-rule="evenodd" d="M11.993 5.097A5.42 5.42 0 0 0 8.408 3.75C5.421 3.75 3 6.15 3 9.11c0 1.363.506 2.614 1.352 3.56L12 20.25l7.422-7.356.219-.23A5.3 5.3 0 0 0 21 9.11c0-2.96-2.421-5.36-5.408-5.36-1.375 0-2.63.509-3.585 1.347L12 5.09zM12 7.099l.055.049.853-.846.089-.078a3.92 3.92 0 0 1 2.595-.974c2.171 0 3.908 1.74 3.908 3.86 0 .971-.361 1.857-.964 2.538l-.187.197L12 18.138 5.443 11.64A3.83 3.83 0 0 1 4.5 9.11c0-2.118 1.737-3.859 3.908-3.859.999 0 1.905.368 2.595.974l.09.078.852.846z" clip-rule="evenodd"/></symbol>
<symbol id="file-arrow-right" fill="none" viewBox="0 0 24 25"><path stroke="currentColor" stroke-linecap="round" stroke-linejoin="round" stroke-width="2" d="M13 16.212h8m0 0-3-3m3 3-3 3m-5-16H8.2c-1.12 0-1.68 0-2.108.217a2 2 0 0 0-.874.875C5 4.73 5 5.29 5 6.412v11.6c0 1.12 0 1.68.218 2.107a2 2 0 0 0 .874.875c.428.218.988.218 2.108.218h5.55m-.75-18 6 6h-4.4c-.56 0-.84 0-1.054-.11a1 1 0 0 1-.437-.436C13 8.452 13 8.172 13 7.612z"/></symbol>
<symbol id="filter-list" fill="none" viewBox="0 0 24 25"><path stroke="currentColor" stroke-linecap="round" stroke-linejoin="round" stroke-width="2" d="M21 6.075h-2m2 6h-5m5 6h-5m-9 2v-6.44c0-.207 0-.311-.02-.41a1 1 0 0 0-.09-.255 2 2 0 0 0-.24-.334l-3.3-4.123a2 2 0 0 1-.24-.334 1 1 0 0 1-.09-.254C3 7.825 3 7.72 3 7.513V5.675c0-.56 0-.84.109-1.054a1 1 0 0 1 .437-.437c.214-.11.494-.11 1.054-.11h8.8c.56 0 .84 0 1.054.11a1 1 0 0 1 .437.437c.109.213.109.493.109 1.054v1.838c0 .208 0 .312-.02.412a1 1 0 0 1-.09.254c-.046.09-.11.171-.24.334l-3.3 4.123c-.13.163-.194.244-.24.334a1 1 0 0 0-.09.254c-.02.1-.02.204-.02.412v3.439z"/></symbol>
<symbol id="filter-xmark" fill="none" viewBox="0 0 24 25"><path stroke="currentColor" stroke-linecap="round" stroke-linejoin="round" stroke-width="2" d="m15 15.212 6 6m0-6-6 6m-5 0v-6.338c0-.244 0-.367-.028-.482a1 1 0 0 0-.12-.289c-.061-.1-.148-.187-.32-.36L3.468 7.68c-.173-.173-.26-.26-.322-.36a1 1 0 0 1-.12-.29C3 6.917 3 6.794 3 6.55V4.812c0-.56 0-.84.109-1.054a1 1 0 0 1 .437-.437c.214-.11.494-.11 1.054-.11h14.8c.56 0 .84 0 1.054.11a1 1 0 0 1 .437.437C21 3.97 21 4.25 21 4.812v1.737c0 .244 0 .367-.028.482a1 1 0 0 1-.12.289c-.061.1-.148.187-.32.36L17 11.211"/></symbol>
<symbol id="fit-height" fill="none" viewBox="0 0 24 24"><path stroke="currentColor" stroke-linecap="round" stroke-linejoin="round" stroke-width="2" d="m9 19 3 3m0 0 3-3m-3 3V2M9 5l3-3m0 0 3 3"/></symbol>
<symbol id="gear" fill="none" viewBox="0 0 24 24"><path stroke="currentColor" stroke-linecap="round" stroke-linejoin="round" stroke-width="2" d="M15 12a3 3 0 1 1-6 0 3 3 0 0 1 6 0"/><path stroke="currentColor" stroke-linecap="round" stroke-linejoin="round" stroke-width="2" d="M12.905 3.06C12.699 3 12.465 3 12 3c-.466 0-.699 0-.905.06a1.5 1.5 0 0 0-.76.515c-.133.169-.22.385-.392.818a1.265 1.265 0 0 1-1.574.73l-.571-.19c-.405-.135-.608-.203-.806-.214a1.5 1.5 0 0 0-.835.197c-.172.099-.323.25-.625.552-.32.32-.481.48-.583.664a1.5 1.5 0 0 0-.181.884c.021.208.105.418.274.84.264.66.01 1.413-.6 1.778l-.277.167c-.425.255-.637.382-.791.558a1.5 1.5 0 0 0-.303.534C3 11.116 3 11.366 3 11.866c0 .593 0 .89.095 1.143a1.5 1.5 0 0 0 .396.586c.2.182.473.29 1.018.508.556.223.843.841.653 1.41l-.215.645c-.149.447-.223.671-.23.89a1.5 1.5 0 0 0 .179.759c.104.193.27.36.604.693s.5.5.693.604a1.5 1.5 0 0 0 .758.18c.22-.008.444-.082.89-.231l.528-.176a1.265 1.265 0 0 1 1.574.73c.173.433.26.65.392.818a1.5 1.5 0 0 0 .76.515c.206.06.44.06.905.06.466 0 .699 0 .905-.06a1.5 1.5 0 0 0 .76-.515c.133-.169.22-.385.392-.818a1.265 1.265 0 0 1 1.574-.73l.527.176c.447.149.67.223.89.23a1.5 1.5 0 0 0 .758-.179c.194-.104.36-.27.694-.604s.5-.5.604-.693a1.5 1.5 0 0 0 .179-.758c-.007-.22-.082-.444-.23-.89l-.216-.646a1.133 1.133 0 0 1 .654-1.41c.545-.217.817-.326 1.018-.508a1.5 1.5 0 0 0 .396-.586c.095-.254.095-.55.095-1.143 0-.5 0-.75-.071-.973a1.5 1.5 0 0 0-.302-.534c-.155-.176-.367-.303-.792-.558l-.278-.167a1.45 1.45 0 0 1-.6-1.778c.17-.422.253-.632.275-.84a1.5 1.5 0 0 0-.181-.884c-.102-.183-.263-.344-.583-.664-.302-.302-.453-.453-.625-.552a1.5 1.5 0 0 0-.835-.197c-.199.011-.401.079-.806.214l-.57.19a1.265 1.265 0 0 1-1.575-.73c-.173-.433-.26-.65-.392-.818a1.5 1.5 0 0 0-.76-.515"/></symbol>
<symbol id="gift-alt" fill="none" viewBox="0 0 24 25"><path stroke="currentColor" stroke-linecap="round" stroke-linejoin="round" stroke-width="2" d="M12 8.212v13m0-13H7.5a2.5 2.5 0 1 1 0-5c3.5 0 4.5 5 4.5 5m0 0h4.5a2.5 2.5 0 0 0 0-5c-3.5 0-4.5 5-4.5 5m-9 6h18m-14.8 7h11.6c1.12 0 1.68 0 2.108-.218a2 2 0 0 0 .874-.875c.218-.427.218-.987.218-2.107v-6.6c0-1.12 0-1.68-.218-2.108a2 2 0 0 0-.874-.874c-.428-.218-.988-.218-2.108-.218H6.2c-1.12 0-1.68 0-2.108.218a2 2 0 0 0-.874.874C3 9.73 3 10.29 3 11.412v6.6c0 1.12 0 1.68.218 2.107a2 2 0 0 0 .874.875c.428.218.988.218 2.108.218"/></symbol>
<symbol id="glases" fill="none" viewBox="0 0 24 24"><path stroke="currentColor" stroke-linecap="round" stroke-linejoin="round" stroke-width="2" d="M6 5c-.267 0-.4 0-.516.009a3 3 0 0 0-2.722 2.463c-.02.114-.034.247-.06.513L2.02 14.59M10 15h4m-4 0a4 4 0 1 1-8 0 4 4 0 0 1 8 0m4 0a4 4 0 1 0 8 0 4 4 0 0 0-8 0m4.015-10c.267 0 .401 0 .517.009a3 3 0 0 1 2.721 2.463c.02.114.034.247.06.513l.668 6.617"/></symbol>
<symbol id="help" fill="none" viewBox="0 0 24 25"><path stroke="currentColor" stroke-linecap="round" stroke-linejoin="round" stroke-width="2" d="M11.967 12.856c1-1 2-1.396 2-2.5a2 2 0 0 0-3.937-.5m1.937 6h.01m9.027-3.75a9 9 0 0 1-9 9h-9s1.56-3.744.936-5a9 9 0 1 1 17.064-4"/></symbol>
<symbol id="hide-progress" fill="none" viewBox="0 0 24 24"><path stroke="currentColor" stroke-linecap="round" stroke-linejoin="round" stroke-width="2" d="M4 15h16"/></symbol>
<symbol id="home" fill="none" viewBox="0 0 24 25"><path stroke="currentColor" stroke-linecap="round" stroke-linejoin="round" stroke-width="2" d="M14 21.106v-6h-4v6m9-11.222v6.421c0 1.68 0 2.52-.327 3.163a3 3 0 0 1-1.311 1.31c-.642.328-1.482.328-3.162.328H9.8c-1.68 0-2.52 0-3.162-.328a3 3 0 0 1-1.311-1.31C5 18.826 5 17.986 5 16.305V9.883m16 2.223-5.433-6.037c-1.236-1.372-1.854-2.059-2.581-2.312a3 3 0 0 0-1.974 0c-.728.254-1.345.94-2.58 2.313L3 12.105"/></symbol>
<symbol id="house-chimney-floor" fill="none" viewBox="0 0 24 25"><path stroke="currentColor" stroke-linecap="round" stroke-linejoin="round" stroke-width="2" d="M5 10.05v6.422c0 1.68 0 2.52.327 3.162a3 3 0 0 0 1.311 1.311c.642.327 1.482.327 3.162.327h4.4c1.68 0 2.52 0 3.162-.327a3 3 0 0 0 1.311-1.31c.327-.643.327-1.483.327-3.163v-11.2m2 7-5.433-6.036c-1.236-1.373-1.854-2.06-2.581-2.312a3 3 0 0 0-1.974 0c-.728.253-1.345.94-2.58 2.313L3 12.272m11 9v-6h-4v6"/></symbol>
<symbol id="key" fill="none" viewBox="0 0 24 25"><path stroke="currentColor" stroke-linecap="round" stroke-linejoin="round" stroke-width="2" d="M12.321 10.79 4 19.107l2 2m1-5 2 2m11-10.5a4.5 4.5 0 1 1-9 0 4.5 4.5 0 0 1 9 0"/></symbol>
<symbol id="letter-japanese-a" fill="none" viewBox="0 0 24 24"><path stroke="currentColor" stroke-linecap="round" stroke-linejoin="round" stroke-width="2" d="M15.486 9c.07.451.026 1.037-.127 1.7m0 0c-.712 3.104-3.794 7.923-8.726 8.792 0 0-1.349.288-2.09-.47-1.261-1.287-1.13-4.694 9.478-8.02a8.4 8.4 0 0 1 1.338-.301m0 0c4.254-.594 8.54 2.162-.483 10.3M7.53 6C9 6 13 5.5 15.535 5m-4.004-2c-1.031 4-2.031 7.5 0 16"/></symbol>
<symbol id="log" fill="none" viewBox="0 0 24 24"><path stroke="currentColor" stroke-linecap="round" stroke-linejoin="round" stroke-width="2" d="M7 17s1-3 5-3 5 3 5 3m-3-8a2 2 0 1 1-4 0 2 2 0 0 1 4 0m-2 11 2.531-2.531c.173-.173.26-.26.36-.322a1 1 0 0 1 .29-.12c.115-.027.237-.027.482-.027H16.8c1.12 0 1.68 0 2.108-.218a2 2 0 0 0 .874-.874C20 15.48 20 14.92 20 13.8V7.2c0-1.12 0-1.68-.218-2.108a2 2 0 0 0-.874-.874C18.48 4 17.92 4 16.8 4H7.2c-1.12 0-1.68 0-2.108.218a2 2 0 0 0-.874.874C4 5.52 4 6.08 4 7.2v6.6c0 1.12 0 1.68.218 2.108a2 2 0 0 0 .874.874C5.52 17 6.08 17 7.2 17h1.137c.245 0 .367 0 .482.028q.154.037.29.12c.1.061.187.148.36.32z"/></symbol>
<symbol id="login" fill="none" viewBox="0 0 24 24"><path stroke="currentColor" stroke-linecap="round" stroke-linejoin="round" stroke-width="2" d="M6 17c0 .351 0 .527.016.68a3 3 0 0 0 2.286 2.611c.15.036.324.059.672.105l6.592.88c1.876.25 2.814.375 3.542.085a3 3 0 0 0 1.509-1.32c.383-.684.383-1.63.383-3.524V7.482c0-1.893 0-2.84-.383-3.523a3 3 0 0 0-1.509-1.32c-.728-.29-1.666-.165-3.542.085l-6.592.88c-.349.046-.523.069-.672.105A3 3 0 0 0 6.016 6.32C6 6.473 6 6.65 6 7m6 1 4 4m0 0-4 4m4-4H3"/></symbol>
<symbol id="longstrip" fill="none" viewBox="0 0 24 25"><path stroke="currentColor" stroke-linecap="round" stroke-linejoin="round" stroke-width="2" d="M20 2.106v6a2 2 0 0 1-2 2H6a2 2 0 0 1-2-2v-6m0 20v-6a2 2 0 0 1 2-2h12a2 2 0 0 1 2 2v6"/></symbol>
<symbol id="maximaze" fill="none" viewBox="0 0 24 25"><path stroke="currentColor" stroke-linecap="round" stroke-linejoin="round" stroke-width="2" d="m14 10.106 6-6m0 0h-4.5m4.5 0v4.5m-16-4.5 6 6m-6-6v4.5m0-4.5h4.5m5.5 10 6 6m0 0v-4.5m0 4.5h-4.5m-5.5-6-6 6m0 0h4.5m-4.5 0v-4.5"/></symbol>
<symbol id="menu" fill="none" viewBox="0 0 24 24"><path stroke="currentColor" stroke-linecap="round" stroke-linejoin="round" stroke-width="2" d="M20 6H4m16 6H10m10 6h-5"/></symbol>
<symbol id="messege" fill="none" viewBox="0 0 24 24"><path stroke="currentColor" stroke-linecap="round" stroke-linejoin="round" stroke-width="2" d="M21.004 12a9 9 0 0 1-9 9h-9s1.56-3.744.936-5a9 9 0 1 1 17.064-4"/></symbol>
<symbol id="move-left" fill="none" viewBox="0 0 24 25"><path stroke="currentColor" stroke-linecap="round" stroke-linejoin="round" stroke-width="2" d="M10 5.106h11M10 9.724h11m-11 4.652h11m-11 4.73h11m-15-10-3 3 3 3"/></symbol>
<symbol id="move-right" fill="none" viewBox="0 0 24 24"><path stroke="currentColor" stroke-linecap="round" stroke-linejoin="round" stroke-width="2" d="M10 5h11M10 9.657h11m-11 4.895h11M10 19h11M3 9l3 3-3 3"/></symbol>
<symbol id="nolimit" fill="none" viewBox="0 0 24 25"><path stroke="currentColor" stroke-width="2" d="M12 21.699A9.624 9.624 0 1 0 12 2.45a9.624 9.624 0 1 0 0 19.248Z"/><path stroke="currentColor" stroke-linecap="round" stroke-linejoin="round" stroke-width="2" d="m5.69 5.719 12.73 12.728"/></symbol>
<symbol id="normal-progress" fill="none" viewBox="0 0 24 24"><path stroke="currentColor" stroke-linecap="round" stroke-linejoin="round" stroke-width="2" d="M4 15h16M7 15v-5m10 5v-5M4 9h16"/></symbol>
<symbol id="offset" fill="none" viewBox="0 0 24 24"><path stroke="currentColor" stroke-linecap="round" stroke-linejoin="round" stroke-width="2" d="M2 4h6a2 2 0 0 1 2 2v12a2 2 0 0 1-2 2H2m20 0h-6a2 2 0 0 1-2-2V6a2 2 0 0 1 2-2h6M2 12h20M2 12l3-3m-3 3 3 3m17-3-3-3m3 3-3 3"/></symbol>
<symbol id="open-eye" fill="none" viewBox="0 0 24 25"><path stroke="currentColor" stroke-linecap="round" stroke-linejoin="round" stroke-width="2" d="M15 12.106a3 3 0 1 1-6 0 3 3 0 0 1 6 0"/><path stroke="currentColor" stroke-linecap="round" stroke-linejoin="round" stroke-width="2" d="M12 5.106c-4.477 0-8.267 2.942-9.542 7 1.275 4.057 5.065 7 9.543 7s8.267-2.943 9.542-7c-1.275-4.058-5.065-7-9.543-7"/></symbol>
<symbol id="page" fill="none" viewBox="0 0 24 24"><path stroke="currentColor" stroke-linecap="round" stroke-linejoin="round" stroke-width="2" d="M13 2H6a2 2 0 0 0-2 2v16a2 2 0 0 0 2 2h12a2 2 0 0 0 2-2V9z"/><path stroke="currentColor" stroke-linecap="round" stroke-linejoin="round" stroke-width="2" d="M13 2v7h7"/></symbol>
<symbol id="printer" fill="none" viewBox="0 0 24 25"><path stroke="currentColor" stroke-linecap="round" stroke-linejoin="round" stroke-width="2" d="M7 18.212h-.8c-1.12 0-1.68 0-2.108-.218a2 2 0 0 1-.874-.875C3 16.693 3 16.133 3 15.013v-4.6c0-1.12 0-1.68.218-2.108a2 2 0 0 1 .874-.875c.428-.217.988-.217 2.108-.217H7m10 11h.8c1.12 0 1.68 0 2.108-.218a2 2 0 0 0 .874-.875c.218-.427.218-.987.218-2.107v-4.6c0-1.12 0-1.68-.218-2.108a2 2 0 0 0-.874-.875c-.428-.217-.988-.217-2.108-.217H17m-10 4h.01m9.99-4v-2.4c0-.56 0-.84-.109-1.054a1 1 0 0 0-.437-.437c-.214-.11-.494-.11-1.054-.11H8.6c-.56 0-.84 0-1.054.11a1 1 0 0 0-.437.437C7 3.97 7 4.25 7 4.812v2.4m10 0H7m1.6 14h6.8c.56 0 .84 0 1.054-.11a1 1 0 0 0 .437-.436c.109-.214.109-.494.109-1.055v-2.8c0-.56 0-.84-.109-1.053a1 1 0 0 0-.437-.437c-.214-.11-.494-.11-1.054-.11H8.6c-.56 0-.84 0-1.054.11a1 1 0 0 0-.437.437C7 15.97 7 16.252 7 16.81v2.8c0 .56 0 .84.109 1.055a1 1 0 0 0 .437.436c.214.11.494.11 1.054.11"/></symbol>
<symbol id="progres" fill="none" viewBox="0 0 24 25"><path stroke="currentColor" stroke-linecap="round" stroke-linejoin="round" stroke-width="2" d="m8 12.439 2.461 2.666 5.539-6m-14 3 5-8.66h10l5 8.66-5 8.66H7z"/></symbol>
<symbol id="progress-lightbar" fill="none" viewBox="0 0 24 24"><path stroke="currentColor" stroke-linecap="round" stroke-linejoin="round" stroke-width="2" d="M4 15h16M7 15v-5m10 5v-5"/></symbol>
<symbol id="progress" fill="none" viewBox="0 0 24 25"><path stroke="currentColor" stroke-linecap="round" stroke-linejoin="round" stroke-width="2" d="M12 9.106a3 3 0 1 1 0 6m0-6a3 3 0 1 0 0 6m0-6v-6m0 12v6"/></symbol>
<symbol id="search" fill="none" viewBox="0 0 24 24"><path stroke="currentColor" stroke-linecap="round" stroke-linejoin="round" stroke-width="2" d="M16.673 16.641 21 21m-2-10a8 8 0 1 1-16 0 8 8 0 0 1 16 0"/></symbol>
<symbol id="sensor" fill="none" viewBox="0 0 24 25"><path stroke="currentColor" stroke-linecap="round" stroke-linejoin="round" stroke-width="2" d="M8 8.106v4m4-4v4m-4.8 8h9.6c1.12 0 1.68 0 2.108-.219a2 2 0 0 0 .874-.873c.218-.428.218-.988.218-2.108v-9.6c0-1.12 0-1.68-.218-2.108a2 2 0 0 0-.874-.874c-.428-.218-.988-.218-2.108-.218H7.2c-1.12 0-1.68 0-2.108.218a2 2 0 0 0-.874.874C4 5.625 4 6.185 4 7.306v9.6c0 1.12 0 1.68.218 2.108a2 2 0 0 0 .874.874c.428.217.988.217 2.108.217"/></symbol>
<symbol id="share" fill="none" viewBox="0 0 24 25"><path stroke="currentColor" stroke-width="2" d="M9 12.212a2.5 2.5 0 1 1-5 0 2.5 2.5 0 0 1 5 0Z"/><path stroke="currentColor" stroke-linecap="round" stroke-width="2" d="m14 6.712-5 3.5M14 17.712l-5-3.5"/><path stroke="currentColor" stroke-width="2" d="M19 18.712a2.5 2.5 0 1 1-5 0 2.5 2.5 0 0 1 5 0ZM19 5.712a2.5 2.5 0 1 1-5 0 2.5 2.5 0 0 1 5 0Z"/></symbol>
<symbol id="star" fill="none" viewBox="0 0 24 25"><path stroke="currentColor" stroke-linecap="round" stroke-linejoin="round" stroke-width="2" d="M11.414 4.524c.235-.524.353-.785.517-.866.143-.07.31-.07.452 0 .165.08.282.342.518.866l1.877 4.17c.07.155.104.232.158.291a.5.5 0 0 0 .171.123c.074.033.159.042.33.06l4.584.479c.575.06.863.09.991.22.111.112.163.27.14.426-.027.18-.242.37-.672.755l-3.424 3.056c-.127.113-.191.17-.231.24a.5.5 0 0 0-.066.198c-.008.08.01.163.045.328l.957 4.466c.12.561.18.841.095 1.002a.51.51 0 0 1-.366.264c-.18.03-.431-.113-.933-.4l-3.993-2.28c-.148-.085-.222-.128-.301-.144a.5.5 0 0 0-.211 0c-.08.016-.153.059-.302.143l-3.993 2.281c-.501.287-.752.43-.933.4a.51.51 0 0 1-.365-.264c-.085-.16-.025-.44.095-1.002l.956-4.466c.036-.165.054-.248.045-.328a.5.5 0 0 0-.065-.199c-.04-.069-.104-.126-.231-.239l-3.425-3.056c-.43-.384-.645-.576-.671-.755a.5.5 0 0 1 .14-.426c.128-.13.415-.16.99-.22l4.585-.48c.17-.017.256-.026.33-.059a.5.5 0 0 0 .17-.123c.054-.059.089-.136.159-.291z"/></symbol>
<symbol id="text" fill="none" viewBox="0 0 24 25"><path stroke="currentColor" stroke-linecap="round" stroke-linejoin="round" stroke-width="2" d="M17 19.106a2 2 0 1 0 2-2m-2 2a2 2 0 0 1 2-2m-2 2H7m12-2v-10m-12 12a2 2 0 1 1-2-2m2 2a2 2 0 0 0-2-2m0 0v-10m0 0a2 2 0 1 1 2-2m-2 2a2 2 0 0 0 2-2m0 0h10m2 2a2 2 0 0 1-2-2m2 2a2 2 0 1 0-2-2m-5 10v-6m-3 0h6"/></symbol>
<symbol id="user" fill="none" viewBox="0 0 24 24"><path fill="currentColor" d="M5.85 17.1q1.275-.975 2.85-1.538A9.7 9.7 0 0 1 12 15q1.725 0 3.3.563t2.85 1.537a7.7 7.7 0 0 0 1.363-2.325A7.8 7.8 0 0 0 20 12q0-3.325-2.337-5.662Q15.325 4 12 4T6.338 6.338 4 12q0 1.474.487 2.775.488 1.3 1.363 2.325M12 13q-1.474 0-2.488-1.012Q8.5 10.975 8.5 9.5q0-1.474 1.012-2.487T12 6t2.488 1.013Q15.5 8.026 15.5 9.5t-1.012 2.488Q13.475 13 12 13m0 9a9.7 9.7 0 0 1-3.9-.788 10.1 10.1 0 0 1-3.175-2.137q-1.35-1.35-2.137-3.175A9.7 9.7 0 0 1 2 12q0-2.075.788-3.9a10.1 10.1 0 0 1 2.137-3.175q1.35-1.35 3.175-2.137A9.7 9.7 0 0 1 12 2q2.075 0 3.9.788a10.1 10.1 0 0 1 3.175 2.137q1.35 1.35 2.137 3.175A9.7 9.7 0 0 1 22 12a9.7 9.7 0 0 1-.788 3.9 10.1 10.1 0 0 1-2.137 3.175q-1.35 1.35-3.175 2.137A9.7 9.7 0 0 1 12 22m0-2q1.325 0 2.5-.387a7.5 7.5 0 0 0 2.15-1.113 7.5 7.5 0 0 0-2.15-1.113A8 8 0 0 0 12 17q-1.325 0-2.5.387A7.5 7.5 0 0 0 7.35 18.5a7.5 7.5 0 0 0 2.15 1.113A8 8 0 0 0 12 20m0-9q.65 0 1.075-.425T13.5 9.5t-.425-1.075T12 8t-1.075.425T10.5 9.5t.425 1.075T12 11"/></symbol>
<symbol id="voicemail" fill="none" viewBox="0 0 24 25"><path stroke="currentColor" stroke-linecap="round" stroke-linejoin="round" stroke-width="2" d="M6 16.106a4 4 0 1 0 0-8 4 4 0 0 0 0 8m0 0h12m0 0a4 4 0 1 0 0-8 4 4 0 0 0 0 8"/></symbol>
<symbol id="volume" fill="none" viewBox="0 0 24 25"><path stroke="currentColor" stroke-linecap="round" stroke-linejoin="round" stroke-width="2" d="M10.001 9.105H9.1c-.56 0-.84 0-1.054.11a1 1 0 0 0-.437.436c-.109.214-.109.494-.109 1.054v2.8c0 .56 0 .84.109 1.054a1 1 0 0 0 .437.437c.214.11.494.11 1.054.11h.901c.551 0 .827 0 1.082.068.226.06.44.161.631.296.216.152.393.364.745.787l2.626 3.15c.436.524.654.785.844.812a.5.5 0 0 0 .442-.16c.129-.142.129-.483.129-1.163V5.315c0-.68 0-1.02-.129-1.164a.5.5 0 0 0-.442-.16c-.19.028-.408.289-.844.812L12.46 7.954c-.352.423-.528.635-.745.787a2 2 0 0 1-.631.296c-.255.068-.53.068-1.082.068"/></symbol>
<symbol id="volume2" fill="none" viewBox="0 0 24 25"><path stroke="currentColor" stroke-linecap="round" stroke-linejoin="round" stroke-width="2" d="M16 9.106c.628.835 1 1.874 1 3a4.98 4.98 0 0 1-1 3m2-9.709a8.98 8.98 0 0 1 3 6.708 8.98 8.98 0 0 1-3 6.709M4.6 9.106h.901c.551 0 .827 0 1.082-.07a2 2 0 0 0 .631-.295c.216-.152.393-.364.746-.787l2.625-3.151c.436-.523.654-.784.844-.811a.5.5 0 0 1 .442.16c.129.142.129.483.129 1.163v13.58c0 .681 0 1.022-.129 1.164a.5.5 0 0 1-.442.16c-.19-.027-.408-.288-.844-.811L7.96 16.257c-.353-.423-.53-.635-.746-.787a2 2 0 0 0-.631-.296c-.255-.069-.53-.069-1.082-.069H4.6c-.56 0-.84 0-1.054-.109a1 1 0 0 1-.437-.437C3 14.347 3 14.067 3 13.506v-2.8c0-.56 0-.84.109-1.054a1 1 0 0 1 .437-.437c.214-.11.494-.11 1.054-.11"/></symbol>
</svg>