<?xml version="1.0" encoding="UTF-8"?>
<svg version="1.1" xmlns="http://www.w3.org/2000/svg" xmlns:xlink="http://www.w3.org/1999/xlink">
<defs></defs>
<symbol id="basket" fill="none" viewBox="0 0 24 25"><path stroke="currentColor" stroke-linecap="round" stroke-linejoin="round" stroke-width="2" d="m21 5.5-2 7H7.377M20 16.5H8l-2-13H3m8.5 4 2 2m0 0 2-2m-2 2v-6M9 20.5a1 1 0 1 1-2 0 1 1 0 0 1 2 0m11 0a1 1 0 1 1-2 0 1 1 0 0 1 2 0"/></symbol>
<symbol id="clock" fill="none" viewBox="0 0 25 24"><path stroke="currentColor" stroke-linecap="round" stroke-linejoin="round" stroke-width="2" d="M12.5 7v5L11 14.5M21.5 12a9 9 0 1 1-18 0 9 9 0 0 1 18 0"/></symbol>
<symbol id="close" fill="none" viewBox="0 0 24 24"><path fill="currentColor" d="M20.746 3.328a1 1 0 0 0-1.415 0l-7.294 7.294-7.294-7.294a1 1 0 1 0-1.414 1.414l7.294 7.295-7.294 7.294a1 1 0 0 0 1.414 1.414l7.294-7.294 7.294 7.294a1 1 0 0 0 1.415-1.414l-7.295-7.294 7.295-7.295a1 1 0 0 0 0-1.414"/></symbol>
<symbol id="discord" fill="none" viewBox="0 0 24 25"><g clip-path="url(#a)"><path fill="currentColor" d="M15.43 11.9a1.23 1.23 0 1 1-1.225-1.331c.683.029 1.225.59 1.225 1.277l-.001.056v-.003zm-5.604-1.33a1.338 1.338 0 0 0-.005 2.664h.005a1.28 1.28 0 0 0 1.225-1.277l-.001-.056v.003l.002-.067c0-.685-.541-1.243-1.219-1.269h-.002zM22.5 2.972V24.5c-3.023-2.672-2.057-1.787-5.568-5.052l.636 2.22H3.959a2.467 2.467 0 0 1-2.46-2.466V2.966A2.466 2.466 0 0 1 3.958.5h16.081a2.467 2.467 0 0 1 2.46 2.466zm-3.42 11.376a16 16 0 0 0-1.77-7.086l.042.09a5.9 5.9 0 0 0-3.358-1.259l-.014-.001-.168.192c1.15.312 2.15.837 3.002 1.535l-.014-.011a10.07 10.07 0 0 0-4.839-1.222c-1.493 0-2.911.321-4.189.898l.064-.026c-.444.204-.708.35-.708.35a8 8 0 0 1 3.1-1.56l.056-.012-.12-.144A5.9 5.9 0 0 0 6.78 7.361l.012-.009c-1.052 2.036-1.686 4.437-1.728 6.982v.014a4.35 4.35 0 0 0 3.543 1.826l.123-.002h-.006s.444-.54.804-.996a3.75 3.75 0 0 1-2.093-1.406l-.007-.01c.176.124.468.284.49.3a8.64 8.64 0 0 0 4.188 1.067 8.7 8.7 0 0 0 3.36-.668l-.058.021c.528-.202.982-.44 1.404-.723l-.025.016a3.8 3.8 0 0 1-2.144 1.423l-.026.005c.36.456.792.972.792.972l.111.001a4.38 4.38 0 0 0 3.552-1.813z"/></g></symbol>
<symbol id="grammar-tooltip" fill="none" viewBox="0 0 24 21"><path fill="currentColor" fill-rule="evenodd" d="m21.445 2.34-1.942.002a2.8 2.8 0 0 0-1.438-.397c-.514 0-1.019.138-1.458.4l-14.134.013.044 16.154s1.104-.226 1.66-.311c6.362-.975 10.404-7.103 10.362-10.37l.003-.023H5.074c-.937 0-1.804.04-2.313.08V5.054c.59.08 1.64.16 2.313.16H14.5c.286 0 .734-.02 1.161-.08l-.007-.043a2 2 0 0 1-.034-.339c0-1.289 1.038-2.35 2.33-2.41l.066-.001h.114l.057.002c1.268.065 2.3 1.124 2.3 2.41 0 1.285-1.137 2.392-2.44 2.392-.142 0-.237-.018-.248-.02l-.015.055-.017.067-.009.033-.063.25a3 3 0 0 1-.059.198l-.033.138c-.476 1.975-1.302 5.036-3.021 7.179-.303.377-.932 1.2-1.915 2.067a17.4 17.4 0 0 1-2.468 1.802C8.477 19.954 4.983 21 4.983 21l-4.987-.022V0l22.695.057H24V1.18l-.05 18.566v1.23h-6.833a38 38 0 0 1-3.39-2.247h7.718zm-8.11 16.046q-.42-.297-.826-.613c.725-.6 1.392-1.265 1.993-1.986 1.413 1.01 3.102 1.91 5.113 2.6zM8.455 8.203H5.743a20.3 20.3 0 0 0 4.075 7.041 12.2 12.2 0 0 0 1.93-1.894 17.8 17.8 0 0 1-3.295-5.147M20.87 5.066c-.16 1.366-1.347 2.453-2.764 2.473a4 4 0 0 1-.083.296l-.021.088 3.077.08V5.066zM18.056 3.58c.312.001.61.123.83.34a1.146 1.146 0 0 1 0 1.636 1.185 1.185 0 0 1-1.66 0 1.146 1.146 0 0 1 0-1.635c.22-.217.518-.34.83-.34m-4.908-.907h-2.502l.037 2.287h2.426z" clip-rule="evenodd"/></symbol>
<symbol id="logo" fill="none" viewBox="0 0 123 33"><circle cx="16" cy="16.5" r="16" fill="currentColor"/><path fill="#BFEFC4" d="M25.742 16.79c-1.7 1.823-3.361 3.849-4.41 3.44-.394-.692.686-1.997 2.294-4.018s3.496-4.222 5.218-3.55c1.255 1.02-1.192 2.08-3.102 4.128"/><path fill="#BFEFC4" d="M28.685 15.689c1.227 2.665-8.046 9.927-11.735 11.671-3.69 1.745-7.468 1.34-8.696-1.325S4.002 8.865 7.691 7.12c1.33-.629 1.829 12.444 6.7 13.254s13.508-6.39 14.294-4.685"/><path fill="#F6FAFC" d="M25.589 17.513c1.191 2.587-6.394 8.1-9.523 9.58s-6.436.916-7.627-1.671C7.247 22.835 4.573 8.98 7.703 7.501c1.127-.534 1.537 11.842 5.814 12.842 4.276 1 11.31-4.485 12.072-2.83"/><path fill="#F6FAFC" d="m17.416 17.175-.311-4.989a1.01 1.01 0 0 1 .654-1.008l2.52-.947a.99.99 0 0 1 1.34.865l.307 4.906c.027.431-.226.833-.627.997l-2.515 1.03a.99.99 0 0 1-1.368-.854M16.943 17.209l-.312-4.989a.99.99 0 0 0-.774-.905l-2.614-.577a1.01 1.01 0 0 0-1.222 1.05l.307 4.905a.99.99 0 0 0 .745.899l2.62.66a1.01 1.01 0 0 0 1.25-1.043"/><ellipse cx="2.832" cy=".983" fill="#BFEFC4" rx="2.832" ry=".983" transform="matrix(.63517 -.77237 .76404 .64516 22.888 13.068)"/><path fill="#464646" fill-rule="evenodd" d="m102.981 24.2-4.08-5.616V24.2h-4.104V6.44H98.9v9.816l4.056-5.448h5.064l-5.568 6.72 5.616 6.672zM49.48 21.032h-5.376V7.352H40V24.2h9.48zm1.91-7.176q-.77 1.56-.769 3.624 0 2.064.768 3.648.792 1.56 2.136 2.424 1.345.84 2.977.84 1.416 0 2.471-.576 1.08-.576 1.68-1.512V24.2h4.104V10.808h-4.104v1.896q-.575-.936-1.655-1.512-1.057-.576-2.472-.576-1.657 0-3 .84-1.345.84-2.137 2.4m8.4 1.224q.863.888.864 2.424 0 1.536-.865 2.424a2.73 2.73 0 0 1-2.064.888q-1.224 0-2.087-.888a3 3 0 0 1-.182-.217 3.8 3.8 0 0 1-1.638-.69c-1.687-1.237-2.065-3.589-.845-5.254s3.577-2.012 5.264-.776a3.8 3.8 0 0 1 1.384 1.924q.085.078.168.165m11.777 5.736h5.808V24.2H66.983v-3.264l5.568-6.744h-5.52v-3.384h10.224v3.264zm13.346 9.744 8.4-19.752h-4.44l-.126.343c.474.628.76 1.41.768 2.261.019 1.839-1.26 3.385-2.97 3.746l-.744 2.026-.746-2.018c-1.703-.338-2.996-1.85-3.015-3.677a3.8 3.8 0 0 1 .783-2.36l-.118-.32H78.12l5.448 12.935-3.072 6.816zm24.672-16.704q-.768 1.56-.768 3.624t.768 3.648q.792 1.56 2.136 2.424 1.344.84 2.976.84 1.416 0 2.472-.576 1.08-.576 1.68-1.512V24.2h4.104V10.808h-4.104v1.896q-.576-.936-1.656-1.512-1.056-.576-2.472-.576-1.656 0-3 .84t-2.136 2.4m8.598 1.451q.666.849.666 2.197 0 1.536-.864 2.424a2.73 2.73 0 0 1-2.064.888q-1.224 0-2.088-.888a3 3 0 0 1-.23-.283 3.8 3.8 0 0 1-1.324-.624c-1.687-1.237-2.066-3.589-.846-5.254 1.221-1.665 3.577-2.012 5.264-.776a3.8 3.8 0 0 1 1.486 2.316" clip-rule="evenodd"/><path fill="currentColor" fill-rule="evenodd" d="M85.842 19.729c2.21-.023 3.978-2.294 3.95-5.074a6.1 6.1 0 0 0-.373-2.06q.09.395.096.817c.022 2.091-1.635 3.804-3.699 3.825-2.064.02-3.754-1.657-3.776-3.749q-.004-.421.08-.818a6.1 6.1 0 0 0-.33 2.067c.028 2.78 1.842 5.015 4.052 4.992m-24.749-.012c1.306-1.782.547-4.56-1.695-6.202a6.1 6.1 0 0 0-1.872-.937q.37.165.71.413c1.688 1.236 2.066 3.588.846 5.253s-3.577 2.013-5.264.776a4 4 0 0 1-.607-.553 6.1 6.1 0 0 0 1.457 1.502c2.242 1.643 5.119 1.53 6.425-.252m56.765-6.202c2.243 1.643 3.001 4.42 1.695 6.202s-4.182 1.895-6.424.252a6.1 6.1 0 0 1-1.457-1.502q.267.304.607.553c1.687 1.237 4.044.889 5.264-.776s.842-4.017-.845-5.253a4 4 0 0 0-.712-.413 6.1 6.1 0 0 1 1.872.937m-6.413.237-.011.015-.011.015.011-.015z" clip-rule="evenodd"/></symbol>
<symbol id="pulse" fill="none" viewBox="0 0 24 25"><g clip-path="url(#a)"><path fill="currentColor" fill-rule="evenodd" d="M12 24.5c6.627 0 12-5.373 12-12S18.627.5 12 .5 0 5.873 0 12.5s5.373 12 12 12m5.892-11.014a1.91 1.91 0 0 1 2.092-.072 1.906 1.906 0 0 1-.233 3.379c-.32.139-.674.187-1.02.139a1.91 1.91 0 0 1-1.536-1.253h-2.017a.64.64 0 0 1-.603-.435l-.621-1.865-1.979 6.924a.64.64 0 0 1-.61.461h-.037a.635.635 0 0 1-.59-.53L8.696 7.99l-1.802 7.206a.636.636 0 0 1-.617.482H3.736a.636.636 0 0 1 0-1.272h2.046l2.423-9.69a.636.636 0 0 1 1.243.05l2.08 12.475 1.768-6.188a.635.635 0 0 1 1.214-.027l1.127 3.38h1.558a1.9 1.9 0 0 1 .697-.92" clip-rule="evenodd"/></g></symbol>
<symbol id="reddit" fill="none" viewBox="0 0 24 25"><path fill="currentColor" d="M9.455 16.24a.306.306 0 0 0-.217.521 4.3 4.3 0 0 0 2.784.855h-.01q.095.005.203.005c.97 0 1.866-.323 2.584-.869l-.01.008a.34.34 0 0 0 .026-.435.308.308 0 0 0-.435 0 3.7 3.7 0 0 1-2.363.685h.01a3.677 3.677 0 0 1-2.366-.692l.01.008a.3.3 0 0 0-.215-.089h-.002zm5.122-3.74a1.171 1.171 0 1 0 .003 2.342 1.171 1.171 0 0 0-.003-2.342m-5.155 0a1.17 1.17 0 1 1 0 2.341 1.17 1.17 0 0 1 0-2.341m7.274-6.8a1.163 1.163 0 1 1-1.17 1.226v-.003l-2.434-.513-.75 3.511a8.1 8.1 0 0 1 4.409 1.413l-.028-.018c.285-.284.679-.46 1.114-.46h.018c.908 0 1.643.736 1.644 1.644a1.7 1.7 0 0 1-.937 1.508l-.01.005c.025.143.04.309.04.477v.01c0 2.526-2.934 4.565-6.565 4.565-3.63 0-6.564-2.04-6.564-4.565v-.004q0-.263.043-.515L5.504 14a1.643 1.643 0 0 1 .67-3.144c.44.005.837.179 1.132.46h-.001a7.9 7.9 0 0 1 4.443-1.394h.003l.83-3.92a.32.32 0 0 1 .13-.184.33.33 0 0 1 .226-.04h-.002l2.723.579a1.14 1.14 0 0 1 1.031-.657h.008zM12 1.253C5.79 1.253.753 6.288.753 12.5S5.79 23.747 12 23.747 23.247 18.71 23.247 12.5c0-3.106-1.258-5.918-3.294-7.953A11.2 11.2 0 0 0 12 1.253"/></symbol>
<symbol id="search" fill="none" viewBox="0 0 24 25"><path stroke="currentColor" stroke-linecap="round" stroke-linejoin="round" stroke-width="2" d="M16.673 17.141 21 21.5m-2-10a8 8 0 1 1-16 0 8 8 0 0 1 16 0"/></symbol>
<symbol id="telegram" fill="none" viewBox="0 0 24 25"><path fill="currentColor" d="M16.592 8.03h.016a.73.73 0 0 1 .421.133l-.002-.002a.48.48 0 0 1 .16.302v.003a2 2 0 0 1 .018.448v-.007c-.169 1.777-.9 6.086-1.273 8.075-.157.842-.467 1.124-.767 1.151-.652.06-1.147-.43-1.778-.844-.989-.65-1.548-1.053-2.507-1.685-1.109-.73-.39-1.132.242-1.788.165-.172 3.039-2.786 3.095-3.023a.231.231 0 0 0-.053-.199.26.26 0 0 0-.138-.04.3.3 0 0 0-.096.018h.001q-.149.034-4.737 3.13c-.334.263-.755.43-1.214.45h-.005a8 8 0 0 1-1.8-.43l.055.018c-.703-.23-1.262-.35-1.214-.74q.038-.302.835-.62a524 524 0 0 1 6.55-2.82 17 17 0 0 1 4.072-1.508l.118-.023m-4.644-6.761C5.72 1.284.678 6.335.678 12.564c0 6.237 5.057 11.295 11.296 11.295s11.295-5.057 11.295-11.295c0-6.23-5.042-11.28-11.267-11.295h-.055"/></symbol>
<symbol id="twitter" fill="none" viewBox="0 0 24 25"><g clip-path="url(#a)"><path fill="currentColor" d="M12 .5C5.372.5 0 5.872 0 12.5s5.372 12 12 12 12-5.372 12-12-5.372-12-12-12m4.79 10.134q.006.156.005.32c0 3.257-2.48 7.016-7.017 7.016A6.97 6.97 0 0 1 6 16.864q.289.034.59.033a4.95 4.95 0 0 0 3.062-1.055 2.46 2.46 0 0 1-2.302-1.71 2.5 2.5 0 0 0 1.116-.048 2.465 2.465 0 0 1-1.978-2.418v-.029c.332.183.712.296 1.115.31a2.47 2.47 0 0 1-1.097-2.053c0-.45.122-.877.333-1.242a7 7 0 0 0 5.081 2.578 2.469 2.469 0 0 1 4.2-2.25 4.9 4.9 0 0 0 1.566-.6 2.47 2.47 0 0 1-1.083 1.364c.497-.061.975-.192 1.416-.39a5 5 0 0 1-1.228 1.28"/></g></symbol>
<symbol id="wide-vertical" fill="none" viewBox="0 0 24 24"><path stroke="currentColor" stroke-linecap="round" stroke-linejoin="round" stroke-width="2" d="M20 2v6a2 2 0 0 1-2 2H6a2 2 0 0 1-2-2V2m0 20v-6a2 2 0 0 1 2-2h12a2 2 0 0 1 2 2v6"/></symbol>
</svg>